<svg width="460" height="165" viewBox="0 0 460 165" fill="none" xmlns="http://www.w3.org/2000/svg">
<path d="M267.317 144.77C267.865 143.008 269.72 140.103 272.077 139.718L281.667 138.085C281.82 138.076 281.965 138.014 282.078 137.91C282.191 137.805 282.264 137.665 282.285 137.513C282.254 137.371 282.176 137.243 282.064 137.15C281.952 137.057 281.812 137.004 281.667 137L272.112 135.355C269.778 134.958 267.9 132.077 267.352 130.315L265.112 117.855C265.037 117.716 264.926 117.6 264.79 117.519C264.654 117.438 264.5 117.396 264.342 117.396C264.184 117.396 264.029 117.438 263.893 117.519C263.758 117.6 263.647 117.716 263.572 117.855L261.367 130.257C260.818 132.018 258.975 134.923 256.607 135.297L247.052 137C246.899 137.007 246.754 137.069 246.643 137.174C246.532 137.279 246.461 137.42 246.445 137.572C246.464 137.723 246.535 137.862 246.645 137.967C246.756 138.071 246.9 138.134 247.052 138.143L256.607 139.777C258.94 140.185 260.818 143.067 261.367 144.828L263.572 157.288C263.647 157.427 263.758 157.543 263.893 157.624C264.029 157.705 264.184 157.748 264.342 157.748C264.5 157.748 264.654 157.705 264.79 157.624C264.926 157.543 265.037 157.427 265.112 157.288L267.317 144.77Z" fill="black"/>
<path d="M225.317 144.77C225.865 143.008 227.72 140.103 230.077 139.718L239.667 138.085C239.82 138.076 239.965 138.014 240.078 137.91C240.191 137.805 240.264 137.665 240.285 137.513C240.254 137.371 240.176 137.243 240.064 137.15C239.952 137.057 239.812 137.004 239.667 137L230.112 135.355C227.778 134.958 225.9 132.077 225.352 130.315L223.112 117.855C223.037 117.716 222.926 117.6 222.79 117.519C222.654 117.438 222.5 117.396 222.342 117.396C222.184 117.396 222.029 117.438 221.893 117.519C221.758 117.6 221.647 117.716 221.572 117.855L219.367 130.257C218.818 132.018 216.975 134.923 214.607 135.297L205.052 137C204.899 137.007 204.754 137.069 204.643 137.174C204.532 137.279 204.461 137.42 204.445 137.572C204.464 137.723 204.535 137.862 204.645 137.967C204.756 138.071 204.9 138.134 205.052 138.143L214.607 139.777C216.94 140.185 218.818 143.067 219.367 144.828L221.572 157.288C221.647 157.427 221.758 157.543 221.893 157.624C222.029 157.705 222.184 157.748 222.342 157.748C222.5 157.748 222.654 157.705 222.79 157.624C222.926 157.543 223.037 157.427 223.112 157.288L225.317 144.77Z" fill="black"/>
<path d="M66.3167 42.77C66.865 41.0083 68.72 38.1033 71.0767 37.7183L80.6667 36.085C80.8199 36.0757 80.9652 36.0137 81.0779 35.9095C81.1906 35.8053 81.2637 35.6653 81.285 35.5133C81.2539 35.3711 81.1761 35.2433 81.0641 35.1503C80.9521 35.0573 80.8122 35.0044 80.6667 35L71.1117 33.355C68.7783 32.9583 66.9 30.0767 66.3517 28.315L64.1117 15.855C64.0367 15.7161 63.9255 15.6001 63.79 15.5192C63.6544 15.4383 63.4995 15.3956 63.3417 15.3956C63.1838 15.3956 63.0289 15.4383 62.8934 15.5192C62.7578 15.6001 62.6466 15.7161 62.5717 15.855L60.3667 28.2567C59.8183 30.0183 57.975 32.9233 55.6067 33.2967L46.0517 35C45.899 35.0074 45.7541 35.0691 45.6429 35.1739C45.5317 35.2787 45.4615 35.4197 45.445 35.5717C45.4637 35.7227 45.5346 35.8625 45.6453 35.9668C45.7561 36.0712 45.8998 36.1336 46.0517 36.1433L55.6067 37.7767C57.94 38.185 59.8183 41.0667 60.3667 42.8283L62.5717 55.2883C62.6466 55.4272 62.7578 55.5433 62.8934 55.6242C63.0289 55.705 63.1838 55.7477 63.3417 55.7477C63.4995 55.7477 63.6544 55.705 63.79 55.6242C63.9255 55.5433 64.0367 55.4272 64.1117 55.2883L66.3167 42.77Z" fill="black"/>
<path d="M122.624 85.744C126.592 86.512 130.944 86.64 135.168 86.64V102.128C125.312 102.128 119.296 99.568 115.584 95.6C109.568 99.824 99.712 101.616 85.632 101.616C77.184 101.616 68.992 100.08 63.232 96.88C63.616 119.408 52.224 132.592 30.976 132.592C13.056 132.592 4.224 121.072 4.224 104.816C4.224 96.24 6.912 86.128 12.032 76.016H14.336C10.112 84.208 8.192 91.12 8.192 96.88C8.192 109.936 17.792 117.104 33.28 117.104C49.664 117.104 60.544 110.448 60.544 102.768C60.544 94.704 55.04 85.616 51.456 79.088L57.344 67.824H58.496L59.52 72.432C61.056 78.832 63.744 82.288 68.352 84.464C79.488 67.568 93.056 52.848 104.576 52.848C116.992 52.848 123.52 65.52 123.52 78.064C123.52 80.88 123.264 83.44 122.624 85.744ZM69.888 85.104C81.28 89.584 121.472 87.792 121.472 80.88C121.472 73.84 113.536 66.416 102.912 66.416C92.672 66.416 78.976 73.584 69.888 85.104ZM135.122 86.768H153.554V102H135.122V86.768ZM129.746 99.312V89.584L135.122 86.768V102L129.746 99.312ZM152.872 86.768H171.304V102H152.872V86.768ZM147.496 99.312V89.584L152.872 86.768V102L147.496 99.312ZM170.622 86.768H189.054V102H170.622V86.768ZM165.246 99.312V89.584L170.622 86.768V102L165.246 99.312ZM188.372 86.768H206.804V102H188.372V86.768ZM182.996 99.312V89.584L188.372 86.768V102L182.996 99.312ZM206.122 86.768H224.554V102H206.122V86.768ZM200.746 99.312V89.584L206.122 86.768V102L200.746 99.312ZM245.376 77.808C246.528 83.568 251.136 86.64 261.248 86.768V102C252.16 102 244.992 97.648 242.56 89.712C240.256 97.264 233.728 102 224 102L218.368 99.312V89.584L224 86.768C238.336 86.64 243.072 82.672 244.352 65.776H246.016C246.016 69.872 245.76 73.328 245.376 77.808ZM261.122 86.768H279.554V102H261.122V86.768ZM255.746 99.312V89.584L261.122 86.768V102L255.746 99.312ZM278.872 86.768H297.304V102H278.872V86.768ZM273.496 99.312V89.584L278.872 86.768V102L273.496 99.312ZM296.622 86.768H315.054V102H296.622V86.768ZM291.246 99.312V89.584L296.622 86.768V102L291.246 99.312ZM314.372 86.768H332.804V102H314.372V86.768ZM308.996 99.312V89.584L314.372 86.768V102L308.996 99.312ZM372.314 56.432C382.298 56.432 387.29 68.592 387.29 79.728C387.29 91.376 381.786 101.744 372.826 101.744C361.434 101.744 351.706 93.168 349.914 87.024C346.33 96.24 341.338 102 331.994 102L326.49 99.312V89.584L331.994 86.768C341.466 86.768 346.586 83.952 350.938 76.144C358.362 62.96 364.762 56.432 372.314 56.432ZM354.01 78.192C361.946 86.64 384.73 90.992 384.602 85.232C383.834 76.272 377.434 69.104 369.754 69.104C364.762 69.104 358.874 71.792 354.01 78.192ZM424.673 55.024C436.577 55.024 442.849 73.84 442.849 91.76C442.849 112.88 429.921 131.952 412.897 131.952C406.241 131.952 391.905 125.296 386.657 121.968V120.304C390.241 120.944 393.953 121.328 397.793 121.328C418.529 121.328 441.185 109.424 441.185 92.784C441.185 90.992 440.545 88.56 439.521 86.384C435.681 97.008 428.257 101.488 421.345 101.488C412.897 101.488 405.601 95.216 405.601 82.672C405.601 69.488 413.665 55.024 424.673 55.024ZM422.113 88.56C427.745 88.56 433.377 86.768 437.473 82.8C433.633 74.48 427.361 69.488 420.449 69.488C413.281 69.488 408.673 77.04 408.673 81.264C408.673 85.616 415.201 88.56 422.113 88.56Z" fill="#FF3900"/>
</svg>
